<?xml version="1.0" encoding="UTF-8"?><svg id="Layer_2" xmlns="http://www.w3.org/2000/svg" width="77.83" height="50.69" viewBox="0 0 77.83 50.69"><defs><style>.cls-1{fill:gray;stroke-width:0px;}</style></defs><g id="Layer_1-2"><path class="cls-1" d="m41.66,11.49c-1.7,5.22-1.14,10.88,1.55,15.52.58,1,1.18,2,1.77,3-.93,1.76-2.15,3.76-4.4,4.74-.53.23-5.08.04-5.87.03h-4.32c-.31,0-.6.17-.74.45-.14.3-.03.53.11.77.1.2.23.42.33.62.27.49.5.92.77,1.39,2.24,4.08,4.59,8.57,6.83,12.66-6.45-2.92-9.83-4.64-15.81-7.53-4.25-2.05-7.97-3.75-13.68-6.56-.19-.1-5.29-8.63-8.08-13.45-.32-.56.08-1.25.72-1.28.92-.02,1.33-.01,1.81-.01h14.46c.44-.75.63-1.02.99-1.59.36-.58,1.11-1.9,1.42-2.43,1.3-2.33,1.94-3.4,3.58-6.08,1.4-2.28,3.12-5.21,4.43-7.53C29.89.02,30.6.02,33.19.02l18.36-.02c-4.66,2.29-8.24,6.44-9.9,11.49Z"/><path class="cls-1" d="m77.54,14.59c-1.98-11.27-13.85-17.58-24.35-12.99-9.28,4.07-13.21,15.59-8.12,24.34,3.45,5.93,7.17,11.71,10.79,17.54,1.43,2.3,2.92,4.57,4.46,6.97,1.26-1.95,2.46-3.78,3.61-5.64,3.92-6.32,7.87-12.61,11.72-18.98,2.09-3.46,2.57-7.31,1.88-11.24Zm-17.15,10.67c-4.28,0-7.74-3.42-7.74-7.66,0-4.28,3.41-7.71,7.69-7.71,4.24,0,7.66,3.41,7.68,7.65.01,4.23-3.43,7.71-7.62,7.72Z"/></g></svg>